<svg id="logosandtypes_com" xmlns="http://www.w3.org/2000/svg" viewBox="0 0 150 150"><path d="M0 0h150v150H0V0z" fill="none"/><path d="M91.8 16.6v2.2c6.1 2.4 24.3 8 29 25.2h2.5V16.5l-31.5.1zM83.8 45.7c6.6 4.7 3.5 13.6 3.5 13.6s6.4-6.7 6.4-15.4c0-5.2-3.4-9.5-7.7-13.4-6.4-5.8-19.3-13.9-19.3-13.9H26.9V44h2.5c3.4-12.6 12.4-19.4 19.7-23.2 10 7.1 30 21.5 34.7 24.9z"/><path d="M88.9 63.2C84.4 59.8 70.6 49.7 68.2 48c-7.9-5.7-3.5-13.7-3.5-13.7s-8.1 8.9-8.3 15.3c-.1 4.3 3.5 8.7 7.2 11.7 5.5 4.4 15.8 12 19.4 15 5.4 4.5 1.4 12.3 1.4 12.3s8.9-9 9.1-15.4c.2-4.3-.2-6.6-4.6-10z"/><path d="M93.6 104.4c.1-4.3-.3-6.6-4.8-10-4.4-3.4-18.3-13.5-20.6-15.2-7.9-5.7-3.5-13.7-3.5-13.7s-8.1 8.9-8.3 15.3c-.1 4.3 3.5 8.7 7.2 11.7 5.5 4.4 15.8 12 19.4 15 5.4 4.5 1.4 12.3 1.4 12.3s9-9 9.2-15.4z"/><path d="M65.6 107h-1.8s-.4 20.7-12.8 20.7v3.8h49v-3.8c-13.2-.1-34.4-20.7-34.4-20.7z"/></svg>